<mxfile host="65bd71144e">
    <diagram name="ページ1" id="1UbkRVPx4632HsD90uvT">
        <mxGraphModel dx="8235" dy="4730" grid="1" gridSize="10" guides="1" tooltips="1" connect="1" arrows="1" fold="1" page="0" pageScale="1" pageWidth="827" pageHeight="1169" math="0" shadow="0">
            <root>
                <mxCell id="0"/>
                <mxCell id="1" parent="0"/>
                <mxCell id="9" style="edgeStyle=none;html=1;fontSize=16;" parent="1" source="6" target="7" edge="1">
                    <mxGeometry relative="1" as="geometry"/>
                </mxCell>
                <mxCell id="6" value="WinMain" style="rounded=1;whiteSpace=wrap;html=1;fontSize=16;fillColor=#6a00ff;fontColor=#ffffff;strokeColor=#3700CC;" parent="1" vertex="1">
                    <mxGeometry x="250" y="210" width="120" height="60" as="geometry"/>
                </mxCell>
                <mxCell id="11" style="edgeStyle=none;html=1;fontSize=16;" parent="1" source="7" target="10" edge="1">
                    <mxGeometry relative="1" as="geometry"/>
                </mxCell>
                <mxCell id="7" value="Create CuRendCore instance." style="rounded=0;whiteSpace=wrap;html=1;fontSize=16;fillColor=#60a917;fontColor=#ffffff;strokeColor=#2D7600;" parent="1" vertex="1">
                    <mxGeometry x="190" y="310" width="240" height="60" as="geometry"/>
                </mxCell>
                <mxCell id="13" style="edgeStyle=none;html=1;fontSize=16;" parent="1" source="10" target="12" edge="1">
                    <mxGeometry relative="1" as="geometry"/>
                </mxCell>
                <mxCell id="10" value="Set window attributes." style="rounded=0;whiteSpace=wrap;html=1;fontSize=16;" parent="1" vertex="1">
                    <mxGeometry x="220" y="410" width="180" height="60" as="geometry"/>
                </mxCell>
                <mxCell id="17" style="edgeStyle=none;html=1;fontSize=16;" parent="1" source="12" target="16" edge="1">
                    <mxGeometry relative="1" as="geometry"/>
                </mxCell>
                <mxCell id="12" value="Create window controller instance by using user class which inheritance WindowController class." style="rounded=0;whiteSpace=wrap;html=1;fontSize=16;fillColor=#60a917;fontColor=#ffffff;strokeColor=#2D7600;" parent="1" vertex="1">
                    <mxGeometry x="130" y="510" width="360" height="60" as="geometry"/>
                </mxCell>
                <mxCell id="19" style="edgeStyle=none;html=1;fontSize=16;" parent="1" source="16" target="18" edge="1">
                    <mxGeometry relative="1" as="geometry"/>
                </mxCell>
                <mxCell id="16" value="Set controller instance to window attributes." style="rounded=0;whiteSpace=wrap;html=1;fontSize=16;" parent="1" vertex="1">
                    <mxGeometry x="140" y="610" width="340" height="60" as="geometry"/>
                </mxCell>
                <mxCell id="21" style="edgeStyle=none;html=1;fontSize=16;" parent="1" source="18" target="20" edge="1">
                    <mxGeometry relative="1" as="geometry"/>
                </mxCell>
                <mxCell id="18" value="Create window by using window attributes." style="rounded=0;whiteSpace=wrap;html=1;fontSize=16;fillColor=#60a917;fontColor=#ffffff;strokeColor=#2D7600;" parent="1" vertex="1">
                    <mxGeometry x="150" y="710" width="320" height="60" as="geometry"/>
                </mxCell>
                <mxCell id="23" style="edgeStyle=none;html=1;fontSize=16;" parent="1" source="20" target="22" edge="1">
                    <mxGeometry relative="1" as="geometry"/>
                </mxCell>
                <mxCell id="20" value="Show window." style="rounded=0;whiteSpace=wrap;html=1;fontSize=16;" parent="1" vertex="1">
                    <mxGeometry x="250" y="810" width="120" height="60" as="geometry"/>
                </mxCell>
                <mxCell id="25" style="edgeStyle=none;html=1;fontSize=16;" parent="1" source="22" target="24" edge="1">
                    <mxGeometry relative="1" as="geometry"/>
                </mxCell>
                <mxCell id="22" value="Set scene attributes." style="rounded=0;whiteSpace=wrap;html=1;fontSize=16;" parent="1" vertex="1">
                    <mxGeometry x="220" y="910" width="180" height="60" as="geometry"/>
                </mxCell>
                <mxCell id="27" style="edgeStyle=none;html=1;fontSize=16;" parent="1" source="24" target="26" edge="1">
                    <mxGeometry relative="1" as="geometry"/>
                </mxCell>
                <mxCell id="24" value="Create scene manipulator instance by using user class which inheritance SceneMani class." style="rounded=0;whiteSpace=wrap;html=1;fontSize=16;fillColor=#60a917;fontColor=#ffffff;strokeColor=#2D7600;" parent="1" vertex="1">
                    <mxGeometry x="130" y="1010" width="360" height="60" as="geometry"/>
                </mxCell>
                <mxCell id="29" style="edgeStyle=none;html=1;fontSize=16;" parent="1" source="26" target="28" edge="1">
                    <mxGeometry relative="1" as="geometry"/>
                </mxCell>
                <mxCell id="26" value="Set manipulator instance to scene attributes." style="rounded=0;whiteSpace=wrap;html=1;fontSize=16;" parent="1" vertex="1">
                    <mxGeometry x="140" y="1109" width="340" height="60" as="geometry"/>
                </mxCell>
                <mxCell id="31" style="edgeStyle=none;html=1;fontSize=16;" parent="1" source="28" target="30" edge="1">
                    <mxGeometry relative="1" as="geometry"/>
                </mxCell>
                <mxCell id="28" value="Create scene by using scene attributes." style="rounded=0;whiteSpace=wrap;html=1;fontSize=16;fillColor=#60a917;fontColor=#ffffff;strokeColor=#2D7600;" parent="1" vertex="1">
                    <mxGeometry x="150" y="1210" width="320" height="60" as="geometry"/>
                </mxCell>
                <mxCell id="33" style="edgeStyle=none;html=1;fontSize=16;" parent="1" source="30" target="32" edge="1">
                    <mxGeometry relative="1" as="geometry"/>
                </mxCell>
                <mxCell id="30" value="Set scene to window" style="rounded=0;whiteSpace=wrap;html=1;fontSize=16;" parent="1" vertex="1">
                    <mxGeometry x="220" y="1310" width="180" height="60" as="geometry"/>
                </mxCell>
                <mxCell id="32" value="Run" style="rounded=1;whiteSpace=wrap;html=1;fontSize=16;fillColor=#6a00ff;fontColor=#ffffff;strokeColor=#3700CC;" parent="1" vertex="1">
                    <mxGeometry x="250" y="1410" width="120" height="60" as="geometry"/>
                </mxCell>
                <mxCell id="36" value="" style="edgeStyle=none;html=1;" parent="1" source="34" target="40" edge="1">
                    <mxGeometry relative="1" as="geometry">
                        <mxPoint x="810" y="340" as="targetPoint"/>
                    </mxGeometry>
                </mxCell>
                <mxCell id="34" value="WindowProc" style="rounded=1;whiteSpace=wrap;html=1;fontSize=16;fillColor=#6a00ff;fontColor=#ffffff;strokeColor=#3700CC;" parent="1" vertex="1">
                    <mxGeometry x="750" y="210" width="120" height="60" as="geometry"/>
                </mxCell>
                <mxCell id="43" value="" style="edgeStyle=none;html=1;fontSize=16;" parent="1" source="40" target="42" edge="1">
                    <mxGeometry relative="1" as="geometry"/>
                </mxCell>
                <mxCell id="44" value="Yes" style="edgeLabel;html=1;align=center;verticalAlign=middle;resizable=0;points=[];fontSize=16;" parent="43" vertex="1" connectable="0">
                    <mxGeometry x="-0.1906" relative="1" as="geometry">
                        <mxPoint x="9" y="-10" as="offset"/>
                    </mxGeometry>
                </mxCell>
                <mxCell id="58" style="edgeStyle=none;html=1;fontSize=16;" parent="1" source="40" target="57" edge="1">
                    <mxGeometry relative="1" as="geometry"/>
                </mxCell>
                <mxCell id="40" value="msg == WM_SIZE" style="rhombus;whiteSpace=wrap;html=1;fontSize=16;rounded=1;" parent="1" vertex="1">
                    <mxGeometry x="700" y="340" width="220" height="80" as="geometry"/>
                </mxCell>
                <mxCell id="46" value="" style="edgeStyle=none;html=1;fontSize=16;" parent="1" source="42" target="45" edge="1">
                    <mxGeometry relative="1" as="geometry"/>
                </mxCell>
                <mxCell id="66" value="Yes" style="edgeLabel;html=1;align=center;verticalAlign=middle;resizable=0;points=[];fontSize=16;" parent="46" vertex="1" connectable="0">
                    <mxGeometry x="0.5163" y="2" relative="1" as="geometry">
                        <mxPoint x="-23" y="-18" as="offset"/>
                    </mxGeometry>
                </mxCell>
                <mxCell id="48" value="" style="edgeStyle=none;html=1;fontSize=16;" parent="1" source="42" target="47" edge="1">
                    <mxGeometry relative="1" as="geometry"/>
                </mxCell>
                <mxCell id="49" value="No" style="edgeLabel;html=1;align=center;verticalAlign=middle;resizable=0;points=[];fontSize=16;" parent="48" vertex="1" connectable="0">
                    <mxGeometry x="-0.454" y="3" relative="1" as="geometry">
                        <mxPoint x="12" y="18" as="offset"/>
                    </mxGeometry>
                </mxCell>
                <mxCell id="42" value="wParam == SIZE_MINIMIZED" style="rhombus;whiteSpace=wrap;html=1;fontSize=16;rounded=1;" parent="1" vertex="1">
                    <mxGeometry x="1000" y="340" width="290" height="80" as="geometry"/>
                </mxCell>
                <mxCell id="45" value="OnMinimize : WindowController" style="whiteSpace=wrap;html=1;fontSize=16;rounded=1;" parent="1" vertex="1">
                    <mxGeometry x="1360" y="350" width="170" height="60" as="geometry"/>
                </mxCell>
                <mxCell id="51" value="" style="edgeStyle=none;html=1;fontSize=16;" parent="1" source="47" target="50" edge="1">
                    <mxGeometry relative="1" as="geometry"/>
                </mxCell>
                <mxCell id="67" value="Yes" style="edgeLabel;html=1;align=center;verticalAlign=middle;resizable=0;points=[];fontSize=16;" parent="51" vertex="1" connectable="0">
                    <mxGeometry x="0.2877" y="-2" relative="1" as="geometry">
                        <mxPoint x="-15" y="-22" as="offset"/>
                    </mxGeometry>
                </mxCell>
                <mxCell id="53" value="" style="edgeStyle=none;html=1;fontSize=16;" parent="1" source="47" target="52" edge="1">
                    <mxGeometry relative="1" as="geometry"/>
                </mxCell>
                <mxCell id="54" value="No" style="edgeLabel;html=1;align=center;verticalAlign=middle;resizable=0;points=[];fontSize=16;" parent="53" vertex="1" connectable="0">
                    <mxGeometry x="-0.498" relative="1" as="geometry">
                        <mxPoint x="15" y="20" as="offset"/>
                    </mxGeometry>
                </mxCell>
                <mxCell id="47" value="wParam == SIZE_MAXIMIZED" style="rhombus;whiteSpace=wrap;html=1;fontSize=16;rounded=1;" parent="1" vertex="1">
                    <mxGeometry x="1000" y="500" width="290" height="80" as="geometry"/>
                </mxCell>
                <mxCell id="50" value="OnMaximize : WindowController" style="whiteSpace=wrap;html=1;fontSize=16;rounded=1;" parent="1" vertex="1">
                    <mxGeometry x="1360" y="510" width="150" height="60" as="geometry"/>
                </mxCell>
                <mxCell id="56" value="" style="edgeStyle=none;html=1;fontSize=16;" parent="1" source="52" target="55" edge="1">
                    <mxGeometry relative="1" as="geometry"/>
                </mxCell>
                <mxCell id="68" value="Yes" style="edgeLabel;html=1;align=center;verticalAlign=middle;resizable=0;points=[];fontSize=16;" parent="56" vertex="1" connectable="0">
                    <mxGeometry x="0.4356" y="1" relative="1" as="geometry">
                        <mxPoint x="-13" y="-19" as="offset"/>
                    </mxGeometry>
                </mxCell>
                <mxCell id="59" style="edgeStyle=elbowEdgeStyle;html=1;fontSize=16;elbow=vertical;" parent="1" source="52" target="57" edge="1">
                    <mxGeometry relative="1" as="geometry"/>
                </mxCell>
                <mxCell id="52" value="wParam == SIZE_RESTORED" style="rhombus;whiteSpace=wrap;html=1;fontSize=16;rounded=1;" parent="1" vertex="1">
                    <mxGeometry x="990" y="660" width="310" height="80" as="geometry"/>
                </mxCell>
                <mxCell id="55" value="OnRestored : WindowController" style="whiteSpace=wrap;html=1;fontSize=16;rounded=1;" parent="1" vertex="1">
                    <mxGeometry x="1360" y="670" width="170" height="60" as="geometry"/>
                </mxCell>
                <mxCell id="61" value="" style="edgeStyle=elbowEdgeStyle;elbow=vertical;html=1;fontSize=16;" parent="1" source="57" target="60" edge="1">
                    <mxGeometry relative="1" as="geometry"/>
                </mxCell>
                <mxCell id="69" value="Yes" style="edgeLabel;html=1;align=center;verticalAlign=middle;resizable=0;points=[];fontSize=16;" parent="61" vertex="1" connectable="0">
                    <mxGeometry x="0.2782" y="1" relative="1" as="geometry">
                        <mxPoint x="-8" y="-19" as="offset"/>
                    </mxGeometry>
                </mxCell>
                <mxCell id="63" value="" style="edgeStyle=elbowEdgeStyle;elbow=vertical;html=1;fontSize=16;" parent="1" source="57" target="62" edge="1">
                    <mxGeometry relative="1" as="geometry"/>
                </mxCell>
                <mxCell id="71" value="No" style="edgeLabel;html=1;align=center;verticalAlign=middle;resizable=0;points=[];fontSize=16;" parent="63" vertex="1" connectable="0">
                    <mxGeometry x="-0.2188" y="3" relative="1" as="geometry">
                        <mxPoint x="17" y="9" as="offset"/>
                    </mxGeometry>
                </mxCell>
                <mxCell id="57" value="msg == WM_SETFOUCUS" style="rhombus;whiteSpace=wrap;html=1;fontSize=16;rounded=1;" parent="1" vertex="1">
                    <mxGeometry x="670" y="860" width="280" height="80" as="geometry"/>
                </mxCell>
                <mxCell id="60" value="OnSetFocus : WindowController" style="whiteSpace=wrap;html=1;fontSize=16;rounded=1;" parent="1" vertex="1">
                    <mxGeometry x="1020" y="870" width="180" height="60" as="geometry"/>
                </mxCell>
                <mxCell id="65" value="" style="edgeStyle=elbowEdgeStyle;elbow=vertical;html=1;fontSize=16;" parent="1" source="62" target="64" edge="1">
                    <mxGeometry relative="1" as="geometry"/>
                </mxCell>
                <mxCell id="70" value="Yes" style="edgeLabel;html=1;align=center;verticalAlign=middle;resizable=0;points=[];fontSize=16;" parent="65" vertex="1" connectable="0">
                    <mxGeometry x="0.4852" y="3" relative="1" as="geometry">
                        <mxPoint x="-21" y="-17" as="offset"/>
                    </mxGeometry>
                </mxCell>
                <mxCell id="62" value="msg == WM_KILLFOCUS" style="rhombus;whiteSpace=wrap;html=1;fontSize=16;rounded=1;" parent="1" vertex="1">
                    <mxGeometry x="670" y="1020" width="280" height="80" as="geometry"/>
                </mxCell>
                <mxCell id="64" value="OnKillFocus : WindowController" style="whiteSpace=wrap;html=1;fontSize=16;rounded=1;" parent="1" vertex="1">
                    <mxGeometry x="1020" y="1030" width="180" height="60" as="geometry"/>
                </mxCell>
                <mxCell id="72" value="" style="edgeStyle=elbowEdgeStyle;elbow=vertical;html=1;fontSize=16;" parent="1" target="76" edge="1">
                    <mxGeometry relative="1" as="geometry">
                        <mxPoint x="810" y="1100" as="sourcePoint"/>
                    </mxGeometry>
                </mxCell>
                <mxCell id="73" value="No" style="edgeLabel;html=1;align=center;verticalAlign=middle;resizable=0;points=[];fontSize=16;" parent="72" vertex="1" connectable="0">
                    <mxGeometry x="-0.2188" y="3" relative="1" as="geometry">
                        <mxPoint x="17" y="9" as="offset"/>
                    </mxGeometry>
                </mxCell>
                <mxCell id="74" value="" style="edgeStyle=elbowEdgeStyle;elbow=vertical;html=1;fontSize=16;" parent="1" source="76" target="77" edge="1">
                    <mxGeometry relative="1" as="geometry"/>
                </mxCell>
                <mxCell id="75" value="Yes" style="edgeLabel;html=1;align=center;verticalAlign=middle;resizable=0;points=[];fontSize=16;" parent="74" vertex="1" connectable="0">
                    <mxGeometry x="0.4852" y="3" relative="1" as="geometry">
                        <mxPoint x="-21" y="-17" as="offset"/>
                    </mxGeometry>
                </mxCell>
                <mxCell id="76" value="msg == WM_CREATE" style="rhombus;whiteSpace=wrap;html=1;fontSize=16;rounded=1;" parent="1" vertex="1">
                    <mxGeometry x="670" y="1180" width="280" height="80" as="geometry"/>
                </mxCell>
                <mxCell id="77" value="OnCreate : WindowController" style="whiteSpace=wrap;html=1;fontSize=16;rounded=1;" parent="1" vertex="1">
                    <mxGeometry x="1020" y="1190" width="180" height="60" as="geometry"/>
                </mxCell>
                <mxCell id="78" value="" style="edgeStyle=elbowEdgeStyle;elbow=vertical;html=1;fontSize=16;" parent="1" target="82" edge="1">
                    <mxGeometry relative="1" as="geometry">
                        <mxPoint x="810" y="1260" as="sourcePoint"/>
                    </mxGeometry>
                </mxCell>
                <mxCell id="79" value="No" style="edgeLabel;html=1;align=center;verticalAlign=middle;resizable=0;points=[];fontSize=16;" parent="78" vertex="1" connectable="0">
                    <mxGeometry x="-0.2188" y="3" relative="1" as="geometry">
                        <mxPoint x="17" y="9" as="offset"/>
                    </mxGeometry>
                </mxCell>
                <mxCell id="80" value="" style="edgeStyle=elbowEdgeStyle;elbow=vertical;html=1;fontSize=16;" parent="1" source="82" target="83" edge="1">
                    <mxGeometry relative="1" as="geometry"/>
                </mxCell>
                <mxCell id="81" value="Yes" style="edgeLabel;html=1;align=center;verticalAlign=middle;resizable=0;points=[];fontSize=16;" parent="80" vertex="1" connectable="0">
                    <mxGeometry x="0.4852" y="3" relative="1" as="geometry">
                        <mxPoint x="-21" y="-17" as="offset"/>
                    </mxGeometry>
                </mxCell>
                <mxCell id="82" value="msg == WM_PAINT" style="rhombus;whiteSpace=wrap;html=1;fontSize=16;rounded=1;" parent="1" vertex="1">
                    <mxGeometry x="670" y="1340" width="280" height="80" as="geometry"/>
                </mxCell>
                <mxCell id="109" value="" style="edgeStyle=elbowEdgeStyle;elbow=vertical;html=1;fontSize=16;" parent="1" source="83" target="108" edge="1">
                    <mxGeometry relative="1" as="geometry"/>
                </mxCell>
                <mxCell id="83" value="OnPaint : WindowController" style="whiteSpace=wrap;html=1;fontSize=16;rounded=1;" parent="1" vertex="1">
                    <mxGeometry x="1020" y="1350" width="180" height="60" as="geometry"/>
                </mxCell>
                <mxCell id="84" value="" style="edgeStyle=elbowEdgeStyle;elbow=vertical;html=1;fontSize=16;" parent="1" target="88" edge="1">
                    <mxGeometry relative="1" as="geometry">
                        <mxPoint x="810" y="1420" as="sourcePoint"/>
                    </mxGeometry>
                </mxCell>
                <mxCell id="85" value="No" style="edgeLabel;html=1;align=center;verticalAlign=middle;resizable=0;points=[];fontSize=16;" parent="84" vertex="1" connectable="0">
                    <mxGeometry x="-0.2188" y="3" relative="1" as="geometry">
                        <mxPoint x="17" y="9" as="offset"/>
                    </mxGeometry>
                </mxCell>
                <mxCell id="86" value="" style="edgeStyle=elbowEdgeStyle;elbow=vertical;html=1;fontSize=16;" parent="1" source="88" target="89" edge="1">
                    <mxGeometry relative="1" as="geometry"/>
                </mxCell>
                <mxCell id="87" value="Yes" style="edgeLabel;html=1;align=center;verticalAlign=middle;resizable=0;points=[];fontSize=16;" parent="86" vertex="1" connectable="0">
                    <mxGeometry x="0.4852" y="3" relative="1" as="geometry">
                        <mxPoint x="-36" y="-17" as="offset"/>
                    </mxGeometry>
                </mxCell>
                <mxCell id="88" value="msg == WM_MOVE" style="rhombus;whiteSpace=wrap;html=1;fontSize=16;rounded=1;" parent="1" vertex="1">
                    <mxGeometry x="670" y="1650" width="280" height="80" as="geometry"/>
                </mxCell>
                <mxCell id="89" value="OnMove : WindowController" style="whiteSpace=wrap;html=1;fontSize=16;rounded=1;" parent="1" vertex="1">
                    <mxGeometry x="1080" y="1660" width="180" height="60" as="geometry"/>
                </mxCell>
                <mxCell id="90" value="" style="edgeStyle=elbowEdgeStyle;elbow=vertical;html=1;fontSize=16;" parent="1" target="94" edge="1">
                    <mxGeometry relative="1" as="geometry">
                        <mxPoint x="810" y="1730" as="sourcePoint"/>
                    </mxGeometry>
                </mxCell>
                <mxCell id="91" value="No" style="edgeLabel;html=1;align=center;verticalAlign=middle;resizable=0;points=[];fontSize=16;" parent="90" vertex="1" connectable="0">
                    <mxGeometry x="-0.2188" y="3" relative="1" as="geometry">
                        <mxPoint x="17" y="9" as="offset"/>
                    </mxGeometry>
                </mxCell>
                <mxCell id="92" value="" style="edgeStyle=elbowEdgeStyle;elbow=vertical;html=1;fontSize=16;" parent="1" source="94" target="95" edge="1">
                    <mxGeometry relative="1" as="geometry"/>
                </mxCell>
                <mxCell id="93" value="Yes" style="edgeLabel;html=1;align=center;verticalAlign=middle;resizable=0;points=[];fontSize=16;" parent="92" vertex="1" connectable="0">
                    <mxGeometry x="0.4852" y="3" relative="1" as="geometry">
                        <mxPoint x="-36" y="-17" as="offset"/>
                    </mxGeometry>
                </mxCell>
                <mxCell id="94" value="msg == WM_CLOSE" style="rhombus;whiteSpace=wrap;html=1;fontSize=16;rounded=1;" parent="1" vertex="1">
                    <mxGeometry x="670" y="1810.0000000000002" width="280" height="80" as="geometry"/>
                </mxCell>
                <mxCell id="95" value="OnClose : WindowController" style="whiteSpace=wrap;html=1;fontSize=16;rounded=1;" parent="1" vertex="1">
                    <mxGeometry x="1080" y="1820.0000000000002" width="180" height="60" as="geometry"/>
                </mxCell>
                <mxCell id="96" value="" style="edgeStyle=elbowEdgeStyle;elbow=vertical;html=1;fontSize=16;" parent="1" target="100" edge="1">
                    <mxGeometry relative="1" as="geometry">
                        <mxPoint x="810" y="1890.0000000000005" as="sourcePoint"/>
                    </mxGeometry>
                </mxCell>
                <mxCell id="97" value="No" style="edgeLabel;html=1;align=center;verticalAlign=middle;resizable=0;points=[];fontSize=16;" parent="96" vertex="1" connectable="0">
                    <mxGeometry x="-0.2188" y="3" relative="1" as="geometry">
                        <mxPoint x="17" y="9" as="offset"/>
                    </mxGeometry>
                </mxCell>
                <mxCell id="98" value="" style="edgeStyle=elbowEdgeStyle;elbow=vertical;html=1;fontSize=16;" parent="1" source="100" target="101" edge="1">
                    <mxGeometry relative="1" as="geometry"/>
                </mxCell>
                <mxCell id="99" value="Yes" style="edgeLabel;html=1;align=center;verticalAlign=middle;resizable=0;points=[];fontSize=16;" parent="98" vertex="1" connectable="0">
                    <mxGeometry x="0.4852" y="3" relative="1" as="geometry">
                        <mxPoint x="-36" y="-17" as="offset"/>
                    </mxGeometry>
                </mxCell>
                <mxCell id="100" value="msg == WM_DESTROY" style="rhombus;whiteSpace=wrap;html=1;fontSize=16;rounded=1;" parent="1" vertex="1">
                    <mxGeometry x="670" y="1970.0000000000005" width="280" height="80" as="geometry"/>
                </mxCell>
                <mxCell id="101" value="OnDestroy : WindowController" style="whiteSpace=wrap;html=1;fontSize=16;rounded=1;" parent="1" vertex="1">
                    <mxGeometry x="1080" y="1980.0000000000005" width="180" height="60" as="geometry"/>
                </mxCell>
                <mxCell id="102" value="" style="edgeStyle=elbowEdgeStyle;elbow=vertical;html=1;fontSize=16;" parent="1" target="106" edge="1">
                    <mxGeometry relative="1" as="geometry">
                        <mxPoint x="810" y="2050.0000000000005" as="sourcePoint"/>
                    </mxGeometry>
                </mxCell>
                <mxCell id="103" value="No" style="edgeLabel;html=1;align=center;verticalAlign=middle;resizable=0;points=[];fontSize=16;" parent="102" vertex="1" connectable="0">
                    <mxGeometry x="-0.2188" y="3" relative="1" as="geometry">
                        <mxPoint x="17" y="9" as="offset"/>
                    </mxGeometry>
                </mxCell>
                <mxCell id="104" value="" style="edgeStyle=elbowEdgeStyle;elbow=vertical;html=1;fontSize=16;" parent="1" source="106" target="107" edge="1">
                    <mxGeometry relative="1" as="geometry"/>
                </mxCell>
                <mxCell id="105" value="Yes" style="edgeLabel;html=1;align=center;verticalAlign=middle;resizable=0;points=[];fontSize=16;" parent="104" vertex="1" connectable="0">
                    <mxGeometry x="0.4852" y="3" relative="1" as="geometry">
                        <mxPoint x="-36" y="-17" as="offset"/>
                    </mxGeometry>
                </mxCell>
                <mxCell id="115" style="edgeStyle=none;html=1;" edge="1" parent="1" source="106" target="114">
                    <mxGeometry relative="1" as="geometry"/>
                </mxCell>
                <mxCell id="124" value="&lt;font style=&quot;font-size: 16px;&quot;&gt;No&lt;/font&gt;" style="edgeLabel;html=1;align=center;verticalAlign=middle;resizable=0;points=[];" vertex="1" connectable="0" parent="115">
                    <mxGeometry x="-0.3958" y="-4" relative="1" as="geometry">
                        <mxPoint x="24" y="40" as="offset"/>
                    </mxGeometry>
                </mxCell>
                <mxCell id="106" value="msg == WM_SYSKEYDOWN || &lt;br&gt;msg == WM_KEYDOWN" style="rhombus;whiteSpace=wrap;html=1;fontSize=16;rounded=1;" parent="1" vertex="1">
                    <mxGeometry x="645" y="2130" width="330" height="130" as="geometry"/>
                </mxCell>
                <mxCell id="113" value="" style="edgeStyle=none;html=1;" edge="1" parent="1" source="107" target="112">
                    <mxGeometry relative="1" as="geometry"/>
                </mxCell>
                <mxCell id="107" value="ProcessKeyDown : Input" style="whiteSpace=wrap;html=1;fontSize=16;rounded=1;" parent="1" vertex="1">
                    <mxGeometry x="1080" y="2165" width="200" height="60" as="geometry"/>
                </mxCell>
                <mxCell id="111" style="edgeStyle=elbowEdgeStyle;elbow=vertical;html=1;fontSize=16;" parent="1" source="108" target="88" edge="1">
                    <mxGeometry relative="1" as="geometry"/>
                </mxCell>
                <mxCell id="108" value="Update : Input" style="whiteSpace=wrap;html=1;fontSize=16;rounded=1;" parent="1" vertex="1">
                    <mxGeometry x="1020" y="1470" width="180" height="60" as="geometry"/>
                </mxCell>
                <mxCell id="116" style="edgeStyle=elbowEdgeStyle;html=1;elbow=vertical;" edge="1" parent="1" source="112" target="114">
                    <mxGeometry relative="1" as="geometry"/>
                </mxCell>
                <mxCell id="112" value="OnKeyDown : WindowController" style="whiteSpace=wrap;html=1;fontSize=16;rounded=1;" vertex="1" parent="1">
                    <mxGeometry x="1080" y="2280" width="200" height="60" as="geometry"/>
                </mxCell>
                <mxCell id="120" style="edgeStyle=elbowEdgeStyle;elbow=vertical;html=1;" edge="1" parent="1" source="114" target="118">
                    <mxGeometry relative="1" as="geometry"/>
                </mxCell>
                <mxCell id="123" style="edgeStyle=elbowEdgeStyle;elbow=vertical;html=1;" edge="1" parent="1" source="114" target="121">
                    <mxGeometry relative="1" as="geometry"/>
                </mxCell>
                <mxCell id="125" value="No" style="edgeLabel;html=1;align=center;verticalAlign=middle;resizable=0;points=[];fontSize=16;" vertex="1" connectable="0" parent="123">
                    <mxGeometry x="-0.5607" y="-2" relative="1" as="geometry">
                        <mxPoint x="22" y="61" as="offset"/>
                    </mxGeometry>
                </mxCell>
                <mxCell id="114" value="msg == WM_SYSKEYUP || &lt;br&gt;msg == WM_KEYUP" style="rhombus;whiteSpace=wrap;html=1;fontSize=16;rounded=1;" vertex="1" parent="1">
                    <mxGeometry x="645" y="2490" width="330" height="130" as="geometry"/>
                </mxCell>
                <mxCell id="117" value="" style="edgeStyle=none;html=1;" edge="1" parent="1" source="118" target="119">
                    <mxGeometry relative="1" as="geometry"/>
                </mxCell>
                <mxCell id="118" value="ProcessKeyUp : Input" style="whiteSpace=wrap;html=1;fontSize=16;rounded=1;" vertex="1" parent="1">
                    <mxGeometry x="1080" y="2525" width="200" height="60" as="geometry"/>
                </mxCell>
                <mxCell id="122" style="edgeStyle=elbowEdgeStyle;elbow=vertical;html=1;" edge="1" parent="1" source="119" target="121">
                    <mxGeometry relative="1" as="geometry"/>
                </mxCell>
                <mxCell id="119" value="OnKeyUp : WindowController" style="whiteSpace=wrap;html=1;fontSize=16;rounded=1;" vertex="1" parent="1">
                    <mxGeometry x="1080" y="2640" width="200" height="60" as="geometry"/>
                </mxCell>
                <mxCell id="129" style="edgeStyle=elbowEdgeStyle;elbow=vertical;html=1;fontSize=16;" edge="1" parent="1" source="121" target="127">
                    <mxGeometry relative="1" as="geometry"/>
                </mxCell>
                <mxCell id="130" value="Yes" style="edgeLabel;html=1;align=center;verticalAlign=middle;resizable=0;points=[];fontSize=16;" vertex="1" connectable="0" parent="129">
                    <mxGeometry x="-0.4328" y="1" relative="1" as="geometry">
                        <mxPoint x="15" y="-14" as="offset"/>
                    </mxGeometry>
                </mxCell>
                <mxCell id="132" value="" style="edgeStyle=elbowEdgeStyle;elbow=vertical;html=1;fontSize=16;" edge="1" parent="1" source="121" target="131">
                    <mxGeometry relative="1" as="geometry"/>
                </mxCell>
                <mxCell id="134" value="No" style="edgeLabel;html=1;align=center;verticalAlign=middle;resizable=0;points=[];fontSize=16;" vertex="1" connectable="0" parent="132">
                    <mxGeometry x="-0.7147" relative="1" as="geometry">
                        <mxPoint x="20" y="13" as="offset"/>
                    </mxGeometry>
                </mxCell>
                <mxCell id="121" value="msg == WM_LBUTTONDOWN ||&lt;br&gt;msg == WM _LBUTTONUP ||&lt;br&gt;msg == WM _LBUTTONDBCLK ||&lt;br&gt;msg == WM _RBUTTONDOWN ||&lt;br&gt;msg == WM _RBUTTONUP ||&lt;br&gt;msg == WM _RBUTTONDBCLK ||&lt;br&gt;msg == WM _MBUTTONDOWN ||&lt;br&gt;msg == WM _MBUTTONUP ||&lt;br&gt;msg == WM _MOUSEWHEEL ||&lt;br&gt;msg == WM _MOUSEMOVE" style="rhombus;whiteSpace=wrap;html=1;fontSize=16;rounded=1;" vertex="1" parent="1">
                    <mxGeometry x="550" y="2840" width="520" height="390" as="geometry"/>
                </mxCell>
                <mxCell id="126" value="" style="edgeStyle=none;html=1;" edge="1" parent="1" source="127" target="128">
                    <mxGeometry relative="1" as="geometry"/>
                </mxCell>
                <mxCell id="127" value="ProcessMouse : Input" style="whiteSpace=wrap;html=1;fontSize=16;rounded=1;" vertex="1" parent="1">
                    <mxGeometry x="1160" y="3005" width="200" height="60" as="geometry"/>
                </mxCell>
                <mxCell id="133" style="edgeStyle=elbowEdgeStyle;elbow=vertical;html=1;fontSize=16;" edge="1" parent="1" source="128" target="131">
                    <mxGeometry relative="1" as="geometry"/>
                </mxCell>
                <mxCell id="128" value="OnMouse : WindowController" style="whiteSpace=wrap;html=1;fontSize=16;rounded=1;" vertex="1" parent="1">
                    <mxGeometry x="1160" y="3120" width="200" height="60" as="geometry"/>
                </mxCell>
                <mxCell id="131" value="END" style="whiteSpace=wrap;html=1;fontSize=16;rounded=1;fillColor=#6a00ff;fontColor=#ffffff;strokeColor=#3700CC;" vertex="1" parent="1">
                    <mxGeometry x="750" y="3420" width="120" height="60" as="geometry"/>
                </mxCell>
                <mxCell id="137" style="edgeStyle=elbowEdgeStyle;elbow=vertical;html=1;fontSize=16;" edge="1" parent="1" source="135" target="136">
                    <mxGeometry relative="1" as="geometry"/>
                </mxCell>
                <mxCell id="135" value="OnPaint : WindowController" style="rounded=1;whiteSpace=wrap;html=1;fontSize=16;fillColor=#6a00ff;fontColor=#ffffff;strokeColor=#3700CC;" vertex="1" parent="1">
                    <mxGeometry x="1690" y="210" width="240" height="60" as="geometry"/>
                </mxCell>
                <mxCell id="139" value="" style="edgeStyle=elbowEdgeStyle;elbow=vertical;html=1;fontSize=16;" edge="1" parent="1" source="136" target="138">
                    <mxGeometry relative="1" as="geometry"/>
                </mxCell>
                <mxCell id="141" value="No" style="edgeLabel;html=1;align=center;verticalAlign=middle;resizable=0;points=[];fontSize=16;" vertex="1" connectable="0" parent="139">
                    <mxGeometry x="-0.3808" y="-1" relative="1" as="geometry">
                        <mxPoint x="21" y="8" as="offset"/>
                    </mxGeometry>
                </mxCell>
                <mxCell id="143" value="" style="edgeStyle=elbowEdgeStyle;elbow=vertical;html=1;fontSize=16;" edge="1" parent="1" source="136" target="142">
                    <mxGeometry relative="1" as="geometry"/>
                </mxCell>
                <mxCell id="148" value="Yes" style="edgeLabel;html=1;align=center;verticalAlign=middle;resizable=0;points=[];fontSize=16;" vertex="1" connectable="0" parent="143">
                    <mxGeometry x="-0.4687" y="1" relative="1" as="geometry">
                        <mxPoint x="28" y="-19" as="offset"/>
                    </mxGeometry>
                </mxCell>
                <mxCell id="136" value="scene != nullptr" style="rhombus;whiteSpace=wrap;html=1;fontSize=16;rounded=1;" vertex="1" parent="1">
                    <mxGeometry x="1730" y="340" width="160" height="80" as="geometry"/>
                </mxCell>
                <mxCell id="138" value="END" style="whiteSpace=wrap;html=1;fontSize=16;rounded=1;fillColor=#6a00ff;fontColor=#ffffff;strokeColor=#3700CC;" vertex="1" parent="1">
                    <mxGeometry x="1750" y="980" width="120" height="60" as="geometry"/>
                </mxCell>
                <mxCell id="145" value="" style="edgeStyle=elbowEdgeStyle;elbow=vertical;html=1;fontSize=16;" edge="1" parent="1" source="142" target="144">
                    <mxGeometry relative="1" as="geometry"/>
                </mxCell>
                <mxCell id="142" value="Execute : Scene" style="whiteSpace=wrap;html=1;fontSize=16;rounded=1;" vertex="1" parent="1">
                    <mxGeometry x="2010" y="350" width="140" height="60" as="geometry"/>
                </mxCell>
                <mxCell id="147" value="" style="edgeStyle=elbowEdgeStyle;elbow=vertical;html=1;fontSize=16;" edge="1" parent="1" source="144" target="146">
                    <mxGeometry relative="1" as="geometry"/>
                </mxCell>
                <mxCell id="149" value="Yes" style="edgeLabel;html=1;align=center;verticalAlign=middle;resizable=0;points=[];fontSize=16;" vertex="1" connectable="0" parent="147">
                    <mxGeometry x="-0.2327" y="-1" relative="1" as="geometry">
                        <mxPoint x="4" y="-21" as="offset"/>
                    </mxGeometry>
                </mxCell>
                <mxCell id="151" value="" style="edgeStyle=elbowEdgeStyle;elbow=vertical;html=1;fontSize=16;" edge="1" parent="1" source="144" target="150">
                    <mxGeometry relative="1" as="geometry"/>
                </mxCell>
                <mxCell id="153" value="No" style="edgeLabel;html=1;align=center;verticalAlign=middle;resizable=0;points=[];fontSize=16;" vertex="1" connectable="0" parent="151">
                    <mxGeometry x="-0.534" relative="1" as="geometry">
                        <mxPoint x="-20" y="-1" as="offset"/>
                    </mxGeometry>
                </mxCell>
                <mxCell id="144" value="ExecuteResult == Scene close" style="rhombus;whiteSpace=wrap;html=1;fontSize=16;rounded=1;" vertex="1" parent="1">
                    <mxGeometry x="1930" y="480" width="300" height="80" as="geometry"/>
                </mxCell>
                <mxCell id="152" style="edgeStyle=elbowEdgeStyle;elbow=vertical;html=1;fontSize=16;" edge="1" parent="1" source="146" target="150">
                    <mxGeometry relative="1" as="geometry"/>
                </mxCell>
                <mxCell id="146" value="Close : Scene" style="whiteSpace=wrap;html=1;fontSize=16;rounded=1;" vertex="1" parent="1">
                    <mxGeometry x="2310" y="490" width="120" height="60" as="geometry"/>
                </mxCell>
                <mxCell id="155" value="" style="edgeStyle=elbowEdgeStyle;elbow=vertical;html=1;fontSize=16;" edge="1" parent="1" source="150" target="154">
                    <mxGeometry relative="1" as="geometry"/>
                </mxCell>
                <mxCell id="156" value="Yes" style="edgeLabel;html=1;align=center;verticalAlign=middle;resizable=0;points=[];fontSize=16;" vertex="1" connectable="0" parent="155">
                    <mxGeometry x="-0.4683" y="2" relative="1" as="geometry">
                        <mxPoint x="20" y="-13" as="offset"/>
                    </mxGeometry>
                </mxCell>
                <mxCell id="157" style="edgeStyle=elbowEdgeStyle;elbow=vertical;html=1;fontSize=16;" edge="1" parent="1" source="150" target="138">
                    <mxGeometry relative="1" as="geometry"/>
                </mxCell>
                <mxCell id="159" value="No" style="edgeLabel;html=1;align=center;verticalAlign=middle;resizable=0;points=[];fontSize=16;" vertex="1" connectable="0" parent="157">
                    <mxGeometry x="-0.8969" y="1" relative="1" as="geometry">
                        <mxPoint x="19" y="32" as="offset"/>
                    </mxGeometry>
                </mxCell>
                <mxCell id="150" value="CloseResult == Scene destroy" style="rhombus;whiteSpace=wrap;html=1;fontFamily=Helvetica;fontSize=16;fontColor=default;align=center;strokeColor=default;fillColor=default;rounded=1;" vertex="1" parent="1">
                    <mxGeometry x="1930" y="650" width="300" height="70" as="geometry"/>
                </mxCell>
                <mxCell id="158" style="edgeStyle=elbowEdgeStyle;elbow=vertical;html=1;fontSize=16;" edge="1" parent="1" source="154" target="138">
                    <mxGeometry relative="1" as="geometry">
                        <Array as="points">
                            <mxPoint x="2120" y="850"/>
                        </Array>
                    </mxGeometry>
                </mxCell>
                <mxCell id="154" value="DestroyScene : SceneFactory" style="whiteSpace=wrap;html=1;fontSize=16;rounded=1;" vertex="1" parent="1">
                    <mxGeometry x="2310" y="655" width="260" height="60" as="geometry"/>
                </mxCell>
            </root>
        </mxGraphModel>
    </diagram>
</mxfile>